<mxfile host="app.diagrams.net" modified="2022-02-02T16:09:39.365Z" agent="5.0 (Macintosh; Intel Mac OS X 10_15_7) AppleWebKit/605.1.15 (KHTML, like Gecko) Version/15.0 Safari/605.1.15" etag="4enFwBD7o0pzyVYrWP2V" version="16.5.3" type="github">
  <diagram id="4RjSWT0RKZWfSwgtfKOv" name="SystemReasoning">
    <mxGraphModel dx="1773" dy="584" grid="1" gridSize="10" guides="1" tooltips="1" connect="1" arrows="1" fold="1" page="1" pageScale="1" pageWidth="827" pageHeight="1169" math="0" shadow="0">
      <root>
        <mxCell id="0" />
        <mxCell id="1" parent="0" />
        <mxCell id="TJ5iT2tm_MIIDxVGzSix-23" value="" style="rounded=0;whiteSpace=wrap;html=1;labelBackgroundColor=#FFFFFF;fontColor=#569CD6;" vertex="1" parent="1">
          <mxGeometry x="-110" y="70" width="720" height="235" as="geometry" />
        </mxCell>
        <mxCell id="TJ5iT2tm_MIIDxVGzSix-22" value="" style="rounded=0;whiteSpace=wrap;html=1;labelBackgroundColor=#FFFFFF;fontColor=#569CD6;" vertex="1" parent="1">
          <mxGeometry x="-110" y="370" width="760" height="420" as="geometry" />
        </mxCell>
        <mxCell id="TJ5iT2tm_MIIDxVGzSix-2" value="&lt;div style=&quot;text-align: center&quot;&gt;&lt;b&gt;&lt;u&gt;&lt;font color=&quot;#006633&quot;&gt;Knowledge base&lt;/font&gt;&lt;/u&gt;&lt;/b&gt;&lt;/div&gt;&lt;font face=&quot;menlo, monaco, courier new, monospace&quot;&gt;&lt;font color=&quot;#569cd6&quot;&gt;gameElements&lt;/font&gt;&lt;font color=&quot;#999999&quot;&gt;(&lt;/font&gt;&lt;font color=&quot;#9cdcfe&quot;&gt;GE&lt;/font&gt;&lt;font color=&quot;#999999&quot;&gt;)&lt;/font&gt;&lt;font color=&quot;#569cd6&quot;&gt;:-rewards&lt;/font&gt;&lt;font color=&quot;#999999&quot;&gt;(&lt;/font&gt;&lt;font color=&quot;#9cdcfe&quot;&gt;GE&lt;/font&gt;&lt;font color=&quot;#999999&quot;&gt;).&lt;/font&gt;&lt;font color=&quot;#569cd6&quot;&gt;&lt;br&gt;&lt;/font&gt;&lt;font color=&quot;#569cd6&quot;&gt;gameElements&lt;/font&gt;&lt;font color=&quot;#999999&quot;&gt;(&lt;/font&gt;&lt;font color=&quot;#9cdcfe&quot;&gt;GE&lt;/font&gt;&lt;font color=&quot;#999999&quot;&gt;)&lt;/font&gt;&lt;font color=&quot;#569cd6&quot;&gt;:-&lt;/font&gt;&lt;font color=&quot;#569cd6&quot;&gt;gameplay&lt;/font&gt;&lt;font color=&quot;#999999&quot;&gt;(&lt;/font&gt;&lt;font color=&quot;#9cdcfe&quot;&gt;GE&lt;/font&gt;&lt;font color=&quot;#999999&quot;&gt;).&lt;/font&gt;&lt;font color=&quot;#569cd6&quot;&gt;&lt;br&gt;&lt;/font&gt;&lt;font color=&quot;#569cd6&quot;&gt;gameElements&lt;/font&gt;&lt;font color=&quot;#999999&quot;&gt;(&lt;/font&gt;&lt;font color=&quot;#9cdcfe&quot;&gt;GE&lt;/font&gt;&lt;font color=&quot;#999999&quot;&gt;)&lt;/font&gt;&lt;font color=&quot;#569cd6&quot;&gt;:-&lt;/font&gt;&lt;font color=&quot;#569cd6&quot;&gt;environment&lt;/font&gt;&lt;font color=&quot;#999999&quot;&gt;(&lt;/font&gt;&lt;font color=&quot;#9cdcfe&quot;&gt;GE&lt;/font&gt;&lt;font color=&quot;#999999&quot;&gt;).&lt;/font&gt;&lt;font color=&quot;#569cd6&quot;&gt;&lt;br&gt;&lt;/font&gt;&lt;font color=&quot;#569cd6&quot;&gt;gameElements&lt;/font&gt;&lt;font color=&quot;#999999&quot;&gt;(&lt;/font&gt;&lt;font color=&quot;#9cdcfe&quot;&gt;GE&lt;/font&gt;&lt;font color=&quot;#999999&quot;&gt;)&lt;/font&gt;&lt;font color=&quot;#569cd6&quot;&gt;:-&lt;/font&gt;&lt;font color=&quot;#569cd6&quot;&gt;character&lt;/font&gt;&lt;font color=&quot;#999999&quot;&gt;(&lt;/font&gt;&lt;font color=&quot;#9cdcfe&quot;&gt;GE&lt;/font&gt;&lt;font color=&quot;#999999&quot;&gt;)&lt;/font&gt;&lt;font color=&quot;#569cd6&quot;&gt;&lt;span&gt;.&lt;/span&gt;&lt;/font&gt;&lt;/font&gt;" style="rounded=0;whiteSpace=wrap;html=1;align=left;" vertex="1" parent="1">
          <mxGeometry x="164" y="435" width="246" height="90" as="geometry" />
        </mxCell>
        <mxCell id="TJ5iT2tm_MIIDxVGzSix-3" value="&lt;b&gt;&lt;u&gt;&lt;font color=&quot;#006633&quot;&gt;Knowledge base&lt;/font&gt;&lt;/u&gt;&lt;/b&gt;&lt;span&gt;&lt;br&gt;&lt;/span&gt;&lt;div style=&quot;color: rgb(212 , 212 , 212) ; font-family: &amp;#34;menlo&amp;#34; , &amp;#34;monaco&amp;#34; , &amp;#34;courier new&amp;#34; , monospace ; line-height: 18px&quot;&gt;&lt;div style=&quot;text-align: left&quot;&gt;&lt;span style=&quot;background-color: rgb(255 , 255 , 255)&quot;&gt;&lt;span style=&quot;color: rgb(86 , 156 , 214)&quot;&gt;learningElement&lt;/span&gt;(&lt;span style=&quot;color: rgb(156 , 220 , 254)&quot;&gt;X&lt;/span&gt;)&lt;span style=&quot;color: rgb(86 , 156 , 214)&quot;&gt;:-skill&lt;/span&gt;(&lt;span style=&quot;color: rgb(156 , 220 , 254)&quot;&gt;X&lt;/span&gt;)|&lt;/span&gt;&lt;/div&gt;&lt;div style=&quot;text-align: left&quot;&gt;&lt;span style=&quot;background-color: rgb(255 , 255 , 255)&quot;&gt;&lt;span style=&quot;color: rgb(86 , 156 , 214)&quot;&gt;playerModelling&lt;/span&gt;(&lt;span style=&quot;color: rgb(156 , 220 , 254)&quot;&gt;X&lt;/span&gt;)|&lt;/span&gt;&lt;/div&gt;&lt;div style=&quot;text-align: left&quot;&gt;&lt;span style=&quot;background-color: rgb(255 , 255 , 255) ; color: rgb(86 , 156 , 214)&quot;&gt;learning_outcome&lt;/span&gt;&lt;span style=&quot;background-color: rgb(255 , 255 , 255)&quot;&gt;(&lt;/span&gt;&lt;span style=&quot;background-color: rgb(255 , 255 , 255) ; color: rgb(156 , 220 , 254)&quot;&gt;X&lt;/span&gt;&lt;span style=&quot;background-color: rgb(255 , 255 , 255)&quot;&gt;)|&lt;/span&gt;&lt;/div&gt;&lt;div style=&quot;text-align: left&quot;&gt;&lt;span style=&quot;background-color: rgb(255 , 255 , 255)&quot;&gt;                    &lt;span style=&quot;color: rgb(86 , 156 , 214)&quot;&gt;learning_theory&lt;/span&gt;(&lt;span style=&quot;color: rgb(156 , 220 , 254)&quot;&gt;X&lt;/span&gt;)|&lt;/span&gt;&lt;/div&gt;&lt;div&gt;&lt;div style=&quot;text-align: left&quot;&gt;&lt;span style=&quot;background-color: rgb(255 , 255 , 255) ; color: rgb(86 , 156 , 214)&quot;&gt;learning_objective&lt;/span&gt;&lt;span style=&quot;background-color: rgb(255 , 255 , 255)&quot;&gt;(&lt;/span&gt;&lt;span style=&quot;background-color: rgb(255 , 255 , 255) ; color: rgb(156 , 220 , 254)&quot;&gt;X&lt;/span&gt;&lt;span style=&quot;background-color: rgb(255 , 255 , 255)&quot;&gt;).&lt;/span&gt;&lt;/div&gt;&lt;/div&gt;&lt;/div&gt;" style="rounded=0;whiteSpace=wrap;html=1;" vertex="1" parent="1">
          <mxGeometry x="420" y="430" width="220" height="100" as="geometry" />
        </mxCell>
        <mxCell id="TJ5iT2tm_MIIDxVGzSix-4" value="&lt;b&gt;&lt;u&gt;&lt;font color=&quot;#006633&quot;&gt;Knowledge base&lt;/font&gt;&lt;/u&gt;&lt;/b&gt;&lt;br&gt;&lt;font face=&quot;menlo, monaco, courier new, monospace&quot;&gt;&lt;font color=&quot;#569cd6&quot; style=&quot;text-align: left&quot;&gt;learnerModel&lt;/font&gt;&lt;font color=&quot;#999999&quot; style=&quot;text-align: left&quot;&gt;(&lt;/font&gt;&lt;font color=&quot;#9cdcfe&quot; style=&quot;text-align: left&quot;&gt;LM&lt;/font&gt;&lt;font color=&quot;#999999&quot; style=&quot;text-align: left&quot;&gt;)&lt;/font&gt;&lt;font color=&quot;#569cd6&quot; style=&quot;text-align: left&quot;&gt;:-&lt;/font&gt;&lt;font color=&quot;#569cd6&quot; style=&quot;text-align: left&quot;&gt;personality&lt;/font&gt;&lt;font color=&quot;#999999&quot; style=&quot;text-align: left&quot;&gt;(&lt;/font&gt;&lt;font color=&quot;#9cdcfe&quot; style=&quot;text-align: left&quot;&gt;LM&lt;/font&gt;&lt;font color=&quot;#999999&quot; style=&quot;text-align: left&quot;&gt;).&lt;/font&gt;&lt;br&gt;&lt;font style=&quot;text-align: left&quot; color=&quot;#569cd6&quot;&gt;learnerModel&lt;/font&gt;&lt;font color=&quot;#999999&quot; style=&quot;text-align: left&quot;&gt;(&lt;/font&gt;&lt;font style=&quot;text-align: left&quot; color=&quot;#9cdcfe&quot;&gt;LM&lt;/font&gt;&lt;font color=&quot;#999999&quot; style=&quot;text-align: left&quot;&gt;)&lt;/font&gt;&lt;font color=&quot;#569cd6&quot; style=&quot;text-align: left&quot;&gt;:-&lt;/font&gt;&lt;font color=&quot;#569cd6&quot; style=&quot;text-align: left&quot;&gt;preference&lt;/font&gt;&lt;font color=&quot;#999999&quot; style=&quot;text-align: left&quot;&gt;(&lt;/font&gt;&lt;font color=&quot;#9cdcfe&quot; style=&quot;text-align: left&quot;&gt;LM&lt;/font&gt;&lt;font color=&quot;#999999&quot; style=&quot;text-align: left&quot;&gt;).&lt;/font&gt;&lt;br&gt;&lt;font color=&quot;#569cd6&quot; style=&quot;text-align: left&quot;&gt;learnerModel&lt;/font&gt;&lt;font color=&quot;#999999&quot; style=&quot;text-align: left&quot;&gt;(&lt;/font&gt;&lt;font color=&quot;#9cdcfe&quot; style=&quot;text-align: left&quot;&gt;LM&lt;/font&gt;&lt;font color=&quot;#999999&quot; style=&quot;text-align: left&quot;&gt;)&lt;/font&gt;&lt;font color=&quot;#569cd6&quot; style=&quot;text-align: left&quot;&gt;:-&lt;/font&gt;&lt;font color=&quot;#569cd6&quot; style=&quot;text-align: left&quot;&gt;demography&lt;/font&gt;&lt;font color=&quot;#999999&quot; style=&quot;text-align: left&quot;&gt;(&lt;/font&gt;&lt;font color=&quot;#9cdcfe&quot; style=&quot;text-align: left&quot;&gt;LM&lt;/font&gt;&lt;font color=&quot;#999999&quot; style=&quot;text-align: left&quot;&gt;)&lt;/font&gt;.&lt;/font&gt;" style="rounded=0;whiteSpace=wrap;html=1;" vertex="1" parent="1">
          <mxGeometry x="-95" y="445" width="250" height="80" as="geometry" />
        </mxCell>
        <mxCell id="TJ5iT2tm_MIIDxVGzSix-6" value="&lt;span style=&quot;background-color: rgb(255 , 255 , 255)&quot;&gt;&lt;b&gt;&lt;u&gt;&lt;font color=&quot;#006633&quot;&gt;Knowledge base&lt;/font&gt;&lt;/u&gt;&lt;/b&gt;&lt;br&gt;&lt;/span&gt;&lt;div style=&quot;text-align: left ; color: rgb(212 , 212 , 212) ; font-family: &amp;#34;menlo&amp;#34; , &amp;#34;monaco&amp;#34; , &amp;#34;courier new&amp;#34; , monospace ; line-height: 18px&quot;&gt;&lt;span style=&quot;background-color: rgb(255 , 255 , 255)&quot;&gt;&lt;span style=&quot;color: rgb(86 , 156 , 214)&quot;&gt;personality&lt;/span&gt;(&lt;span style=&quot;color: rgb(86 , 156 , 214)&quot;&gt;achievers&lt;/span&gt;).&lt;/span&gt;&lt;/div&gt;&lt;div style=&quot;text-align: left ; color: rgb(212 , 212 , 212) ; font-family: &amp;#34;menlo&amp;#34; , &amp;#34;monaco&amp;#34; , &amp;#34;courier new&amp;#34; , monospace ; line-height: 18px&quot;&gt;&lt;span style=&quot;background-color: rgb(255 , 255 , 255) ; color: rgb(86 , 156 , 214)&quot;&gt;personality&lt;/span&gt;&lt;span style=&quot;background-color: rgb(255 , 255 , 255)&quot;&gt;(&lt;/span&gt;&lt;span style=&quot;background-color: rgb(255 , 255 , 255) ; color: rgb(86 , 156 , 214)&quot;&gt;extroverted&lt;/span&gt;&lt;span style=&quot;background-color: rgb(255 , 255 , 255)&quot;&gt;).&lt;/span&gt;&lt;/div&gt;&lt;div style=&quot;text-align: left ; color: rgb(212 , 212 , 212) ; font-family: &amp;#34;menlo&amp;#34; , &amp;#34;monaco&amp;#34; , &amp;#34;courier new&amp;#34; , monospace ; line-height: 18px&quot;&gt;&lt;span style=&quot;background-color: rgb(255 , 255 , 255)&quot;&gt;&lt;span style=&quot;color: rgb(86 , 156 , 214)&quot;&gt;outcome&lt;/span&gt;(&lt;span style=&quot;color: rgb(86 , 156 , 214)&quot;&gt;understanding&lt;/span&gt;).&lt;/span&gt;&lt;/div&gt;&lt;div style=&quot;color: rgb(212 , 212 , 212) ; font-family: &amp;#34;menlo&amp;#34; , &amp;#34;monaco&amp;#34; , &amp;#34;courier new&amp;#34; , monospace ; line-height: 18px&quot;&gt;&lt;div style=&quot;font-family: &amp;#34;menlo&amp;#34; , &amp;#34;monaco&amp;#34; , &amp;#34;courier new&amp;#34; , monospace ; line-height: 18px&quot;&gt;&lt;div style=&quot;font-family: &amp;#34;menlo&amp;#34; , &amp;#34;monaco&amp;#34; , &amp;#34;courier new&amp;#34; , monospace ; line-height: 18px&quot;&gt;&lt;div style=&quot;text-align: left&quot;&gt;&lt;span style=&quot;background-color: rgb(255 , 255 , 255)&quot;&gt;&lt;span style=&quot;color: rgb(86 , 156 , 214)&quot;&gt;skill&lt;/span&gt;(&lt;span style=&quot;color: rgb(86 , 156 , 214)&quot;&gt;critical_thinking&lt;/span&gt;).&lt;/span&gt;&lt;/div&gt;&lt;div&gt;&lt;div style=&quot;text-align: left&quot;&gt;&lt;span style=&quot;background-color: rgb(255 , 255 , 255) ; color: rgb(86 , 156 , 214)&quot;&gt;skill&lt;/span&gt;&lt;span style=&quot;background-color: rgb(255 , 255 , 255)&quot;&gt;(&lt;/span&gt;&lt;span style=&quot;background-color: rgb(255 , 255 , 255) ; color: rgb(86 , 156 , 214)&quot;&gt;reasoning&lt;/span&gt;&lt;span style=&quot;background-color: rgb(255 , 255 , 255)&quot;&gt;).&lt;/span&gt;&lt;/div&gt;&lt;/div&gt;&lt;/div&gt;&lt;/div&gt;&lt;/div&gt;" style="rounded=0;whiteSpace=wrap;html=1;" vertex="1" parent="1">
          <mxGeometry x="-90" y="670" width="190" height="105" as="geometry" />
        </mxCell>
        <mxCell id="TJ5iT2tm_MIIDxVGzSix-10" value="&lt;span style=&quot;background-color: rgb(255 , 255 , 255)&quot;&gt;&lt;b&gt;&lt;u&gt;&lt;font color=&quot;#006633&quot;&gt;Knowledge base&lt;/font&gt;&lt;/u&gt;&lt;/b&gt;&lt;br&gt;&lt;/span&gt;&lt;div style=&quot;text-align: left ; color: rgb(212 , 212 , 212) ; font-family: &amp;#34;menlo&amp;#34; , &amp;#34;monaco&amp;#34; , &amp;#34;courier new&amp;#34; , monospace ; line-height: 18px&quot;&gt;&lt;span style=&quot;background-color: rgb(255 , 255 , 255)&quot;&gt;&lt;span style=&quot;color: rgb(86 , 156 , 214)&quot;&gt;prefers&lt;/span&gt;(&lt;span style=&quot;color: rgb(86 , 156 , 214)&quot;&gt;silver_gamer&lt;/span&gt;,&lt;span style=&quot;color: rgb(86 , 156 , 214)&quot;&gt;relaxed&lt;/span&gt;).&lt;/span&gt;&lt;/div&gt;&lt;div style=&quot;color: rgb(212 , 212 , 212) ; font-family: &amp;#34;menlo&amp;#34; , &amp;#34;monaco&amp;#34; , &amp;#34;courier new&amp;#34; , monospace ; line-height: 18px&quot;&gt;&lt;div style=&quot;text-align: left ; line-height: 18px&quot;&gt;&lt;span style=&quot;color: rgb(86 , 156 , 214)&quot;&gt;associated&lt;/span&gt;(&lt;span style=&quot;color: rgb(86 , 156 , 214)&quot;&gt;understanding&lt;/span&gt;,&lt;span style=&quot;color: rgb(86 , 156 , 214)&quot;&gt;puzzles&lt;/span&gt;).&lt;/div&gt;&lt;div style=&quot;text-align: left ; line-height: 18px&quot;&gt;&lt;div style=&quot;line-height: 18px&quot;&gt;&lt;span style=&quot;color: rgb(86 , 156 , 214)&quot;&gt;associated&lt;/span&gt;(&lt;span style=&quot;color: rgb(86 , 156 , 214)&quot;&gt;critical_thinking&lt;/span&gt;,&lt;span style=&quot;color: rgb(86 , 156 , 214)&quot;&gt;strategy&lt;/span&gt;).&lt;/div&gt;&lt;/div&gt;&lt;/div&gt;" style="rounded=0;whiteSpace=wrap;html=1;" vertex="1" parent="1">
          <mxGeometry x="-95" y="560" width="290" height="90" as="geometry" />
        </mxCell>
        <mxCell id="TJ5iT2tm_MIIDxVGzSix-11" value="&lt;div style=&quot;text-align: left ; font-family: &amp;#34;menlo&amp;#34; , &amp;#34;monaco&amp;#34; , &amp;#34;courier new&amp;#34; , monospace ; line-height: 18px&quot;&gt;&lt;span style=&quot;background-color: rgb(255 , 255 , 255)&quot;&gt;&lt;b&gt;&lt;u&gt;&lt;font color=&quot;#006633&quot;&gt;Selection Rule&lt;/font&gt;&lt;/u&gt;&lt;/b&gt;&lt;/span&gt;&lt;/div&gt;&lt;div style=&quot;text-align: left ; color: rgb(212 , 212 , 212) ; font-family: &amp;#34;menlo&amp;#34; , &amp;#34;monaco&amp;#34; , &amp;#34;courier new&amp;#34; , monospace ; line-height: 18px&quot;&gt;&lt;span style=&quot;background-color: rgb(255 , 255 , 255)&quot;&gt;&lt;span style=&quot;color: rgb(86 , 156 , 214)&quot;&gt;selection&lt;/span&gt;(&lt;span style=&quot;color: rgb(156 , 220 , 254)&quot;&gt;LE&lt;/span&gt;,&lt;span style=&quot;color: rgb(156 , 220 , 254)&quot;&gt;GE&lt;/span&gt;)&lt;span style=&quot;color: rgb(86 , 156 , 214)&quot;&gt;:-&lt;span style=&quot;white-space: pre&quot;&gt;	&lt;span style=&quot;white-space: pre&quot;&gt;	  &amp;nbsp;&lt;/span&gt;&lt;/span&gt;&lt;/span&gt;&lt;/span&gt;&lt;/div&gt;&lt;div style=&quot;color: rgb(212 , 212 , 212) ; font-family: &amp;#34;menlo&amp;#34; , &amp;#34;monaco&amp;#34; , &amp;#34;courier new&amp;#34; , monospace ; line-height: 18px&quot;&gt;&lt;span style=&quot;background-color: rgb(255 , 255 , 255)&quot;&gt;&lt;span style=&quot;color: rgb(86 , 156 , 214)&quot;&gt;prefers&lt;/span&gt;(&lt;span style=&quot;color: rgb(156 , 220 , 254)&quot;&gt;LE&lt;/span&gt;,&lt;span style=&quot;color: rgb(156 , 220 , 254)&quot;&gt;GE&lt;/span&gt;),&lt;span style=&quot;color: rgb(86 , 156 , 214)&quot;&gt;learningElement&lt;/span&gt;(&lt;span style=&quot;color: rgb(156 , 220 , 254)&quot;&gt;LE&lt;/span&gt;),&lt;/span&gt;&lt;/div&gt;&lt;div style=&quot;color: rgb(212 , 212 , 212) ; font-family: &amp;#34;menlo&amp;#34; , &amp;#34;monaco&amp;#34; , &amp;#34;courier new&amp;#34; , monospace ; line-height: 18px&quot;&gt;&lt;span style=&quot;background-color: rgb(255 , 255 , 255)&quot;&gt;&lt;span style=&quot;color: rgb(86 , 156 , 214)&quot;&gt;gameElement&lt;/span&gt;(&lt;span style=&quot;color: rgb(156 , 220 , 254)&quot;&gt;GE&lt;/span&gt;),&lt;span style=&quot;color: rgb(156 , 220 , 254)&quot;&gt;LE&lt;/span&gt;=&lt;span style=&quot;color: rgb(86 , 156 , 214)&quot;&gt;problem_solving&lt;/span&gt;.&lt;/span&gt;&lt;/div&gt;" style="rounded=0;whiteSpace=wrap;html=1;" vertex="1" parent="1">
          <mxGeometry x="-95" y="220" width="270" height="70" as="geometry" />
        </mxCell>
        <mxCell id="TJ5iT2tm_MIIDxVGzSix-15" value="&lt;div style=&quot;text-align: center&quot;&gt;&lt;b style=&quot;color: rgb(0 , 0 , 0)&quot;&gt;&lt;u&gt;&lt;font color=&quot;#006633&quot;&gt;Rule 2&amp;nbsp;&lt;/font&gt;&lt;/u&gt;&lt;/b&gt;&lt;/div&gt;&lt;div&gt;&lt;span style=&quot;color: rgb(212 , 212 , 212) ; font-family: &amp;#34;menlo&amp;#34; , &amp;#34;monaco&amp;#34; , &amp;#34;courier new&amp;#34; , monospace&quot;&gt;&lt;span style=&quot;color: rgb(86 , 156 , 214)&quot;&gt;:-selection&lt;/span&gt;(&lt;/span&gt;&lt;span style=&quot;font-family: &amp;#34;menlo&amp;#34; , &amp;#34;monaco&amp;#34; , &amp;#34;courier new&amp;#34; , monospace ; color: rgb(156 , 220 , 254)&quot;&gt;X&lt;/span&gt;&lt;font color=&quot;#d4d4d4&quot; style=&quot;color: rgb(212 , 212 , 212) ; font-family: &amp;#34;menlo&amp;#34; , &amp;#34;monaco&amp;#34; , &amp;#34;courier new&amp;#34; , monospace&quot;&gt;,&lt;/font&gt;&lt;span style=&quot;font-family: &amp;#34;menlo&amp;#34; , &amp;#34;monaco&amp;#34; , &amp;#34;courier new&amp;#34; , monospace ; color: rgb(156 , 220 , 254)&quot;&gt;Y&lt;/span&gt;&lt;span style=&quot;color: rgb(212 , 212 , 212) ; font-family: &amp;#34;menlo&amp;#34; , &amp;#34;monaco&amp;#34; , &amp;#34;courier new&amp;#34; , monospace&quot;&gt;),&amp;nbsp;&lt;/span&gt;&lt;span style=&quot;font-family: &amp;#34;menlo&amp;#34; , &amp;#34;monaco&amp;#34; , &amp;#34;courier new&amp;#34; , monospace ; color: rgb(86 , 156 , 214)&quot;&gt;personality&lt;/span&gt;&lt;span style=&quot;color: rgb(212 , 212 , 212) ; font-family: &amp;#34;menlo&amp;#34; , &amp;#34;monaco&amp;#34; , &amp;#34;courier new&amp;#34; , monospace&quot;&gt;(&lt;/span&gt;&lt;span style=&quot;font-family: &amp;#34;menlo&amp;#34; , &amp;#34;monaco&amp;#34; , &amp;#34;courier new&amp;#34; , monospace ; color: rgb(156 , 220 , 254)&quot;&gt;X&lt;/span&gt;&lt;span style=&quot;font-family: &amp;#34;menlo&amp;#34; , &amp;#34;monaco&amp;#34; , &amp;#34;courier new&amp;#34; , monospace&quot;&gt;&lt;font color=&quot;#d4d4d4&quot;&gt;),&lt;/font&gt;&lt;/span&gt;&lt;span style=&quot;font-family: &amp;#34;menlo&amp;#34; , &amp;#34;monaco&amp;#34; , &amp;#34;courier new&amp;#34; , monospace ; color: rgb(86 , 156 , 214)&quot;&gt;&amp;nbsp;gameplay&lt;/span&gt;&lt;span style=&quot;color: rgb(212 , 212 , 212) ; font-family: &amp;#34;menlo&amp;#34; , &amp;#34;monaco&amp;#34; , &amp;#34;courier new&amp;#34; , monospace&quot;&gt;(&lt;/span&gt;&lt;span style=&quot;font-family: &amp;#34;menlo&amp;#34; , &amp;#34;monaco&amp;#34; , &amp;#34;courier new&amp;#34; , monospace ; color: rgb(156 , 220 , 254)&quot;&gt;Y&lt;/span&gt;&lt;span style=&quot;color: rgb(212 , 212 , 212) ; font-family: &amp;#34;menlo&amp;#34; , &amp;#34;monaco&amp;#34; , &amp;#34;courier new&amp;#34; , monospace&quot;&gt;).&lt;/span&gt;&lt;br&gt;&lt;/div&gt;&lt;div style=&quot;color: rgb(212 , 212 , 212) ; font-family: &amp;#34;menlo&amp;#34; , &amp;#34;monaco&amp;#34; , &amp;#34;courier new&amp;#34; , monospace ; line-height: 18px&quot;&gt;&lt;div&gt;&lt;span style=&quot;color: rgb(86 , 156 , 214)&quot;&gt;:-selection&lt;/span&gt;(&lt;span style=&quot;color: rgb(156 , 220 , 254)&quot;&gt;X&lt;/span&gt;&lt;font color=&quot;#d4d4d4&quot;&gt;,&lt;/font&gt;&lt;span style=&quot;color: rgb(156 , 220 , 254)&quot;&gt;Y&lt;/span&gt;),&amp;nbsp;&lt;span style=&quot;color: rgb(86 , 156 , 214)&quot;&gt;personality&lt;/span&gt;(&lt;span style=&quot;color: rgb(156 , 220 , 254)&quot;&gt;X&lt;/span&gt;&lt;span style=&quot;color: rgb(0 , 102 , 51)&quot;&gt;&lt;font color=&quot;#d4d4d4&quot;&gt;),&lt;/font&gt;&lt;/span&gt;&lt;span style=&quot;color: rgb(86 , 156 , 214)&quot;&gt;&amp;nbsp;progression&lt;/span&gt;(&lt;span style=&quot;color: rgb(156 , 220 , 254)&quot;&gt;Y&lt;/span&gt;).&lt;/div&gt;&lt;/div&gt;&lt;div style=&quot;color: rgb(212 , 212 , 212) ; font-family: &amp;#34;menlo&amp;#34; , &amp;#34;monaco&amp;#34; , &amp;#34;courier new&amp;#34; , monospace ; line-height: 18px&quot;&gt;&lt;div style=&quot;font-family: &amp;#34;menlo&amp;#34; , &amp;#34;monaco&amp;#34; , &amp;#34;courier new&amp;#34; , monospace ; line-height: 18px&quot;&gt;&lt;div style=&quot;line-height: 18px&quot;&gt;&lt;span style=&quot;color: rgb(86 , 156 , 214)&quot;&gt;:-selection&lt;/span&gt;(&lt;span style=&quot;color: rgb(156 , 220 , 254)&quot;&gt;X&lt;/span&gt;&lt;font color=&quot;#d4d4d4&quot;&gt;,&lt;/font&gt;&lt;span style=&quot;color: rgb(156 , 220 , 254)&quot;&gt;Y&lt;/span&gt;),&amp;nbsp;&lt;span style=&quot;color: rgb(86 , 156 , 214)&quot;&gt;outcome&lt;/span&gt;(&lt;span style=&quot;color: rgb(156 , 220 , 254)&quot;&gt;X&lt;/span&gt;&lt;span style=&quot;color: rgb(0 , 102 , 51)&quot;&gt;&lt;font color=&quot;#d4d4d4&quot;&gt;),&lt;/font&gt;&lt;/span&gt;&lt;span style=&quot;color: rgb(86 , 156 , 214)&quot;&gt;&amp;nbsp;story&lt;/span&gt;(&lt;span style=&quot;color: rgb(156 , 220 , 254)&quot;&gt;Y&lt;/span&gt;).&lt;/div&gt;&lt;/div&gt;&lt;/div&gt;" style="rounded=0;whiteSpace=wrap;html=1;labelBackgroundColor=#FFFFFF;fontColor=#006633;align=left;" vertex="1" parent="1">
          <mxGeometry x="210" y="200" width="370" height="90" as="geometry" />
        </mxCell>
        <mxCell id="TJ5iT2tm_MIIDxVGzSix-16" value="&lt;div style=&quot;color: rgb(212 , 212 , 212) ; font-family: &amp;#34;menlo&amp;#34; , &amp;#34;monaco&amp;#34; , &amp;#34;courier new&amp;#34; , monospace ; line-height: 18px&quot;&gt;&lt;b style=&quot;font-family: &amp;#34;helvetica&amp;#34; ; color: rgb(0 , 0 , 0)&quot;&gt;&lt;u&gt;&lt;font color=&quot;#006633&quot;&gt;Rule 3&lt;/font&gt;&lt;/u&gt;&lt;/b&gt;&lt;span style=&quot;background-color: rgb(255 , 255 , 255)&quot;&gt;&lt;span style=&quot;color: rgb(86 , 156 , 214)&quot;&gt;&lt;br&gt;&lt;/span&gt;&lt;/span&gt;&lt;/div&gt;&lt;div style=&quot;color: rgb(212 , 212 , 212) ; font-family: &amp;#34;menlo&amp;#34; , &amp;#34;monaco&amp;#34; , &amp;#34;courier new&amp;#34; , monospace ; line-height: 18px&quot;&gt;&lt;span style=&quot;background-color: rgb(255 , 255 , 255)&quot;&gt;&lt;span style=&quot;color: rgb(86 , 156 , 214)&quot;&gt;arleadySelected&lt;/span&gt;(&lt;span style=&quot;color: rgb(156 , 220 , 254)&quot;&gt;GE&lt;/span&gt;)&lt;span style=&quot;color: rgb(86 , 156 , 214)&quot;&gt;:-selection&lt;/span&gt;(&lt;span style=&quot;color: rgb(156 , 220 , 254)&quot;&gt;LE1&lt;/span&gt;,&lt;span style=&quot;color: rgb(156 , 220 , 254)&quot;&gt;GE&lt;/span&gt;),&lt;span style=&quot;color: rgb(86 , 156 , 214)&quot;&gt;selection&lt;/span&gt;(&lt;span style=&quot;color: rgb(156 , 220 , 254)&quot;&gt;LE2&lt;/span&gt;,&lt;span style=&quot;color: rgb(156 , 220 , 254)&quot;&gt;GE&lt;/span&gt;), &lt;span style=&quot;color: rgb(156 , 220 , 254)&quot;&gt;LE1&lt;/span&gt;!=&lt;span style=&quot;color: rgb(156 , 220 , 254)&quot;&gt;LE2&lt;/span&gt;, &lt;span style=&quot;color: rgb(156 , 220 , 254)&quot;&gt;GE&lt;/span&gt;==&lt;span style=&quot;color: rgb(156 , 220 , 254)&quot;&gt;GE&lt;/span&gt;.&lt;/span&gt;&lt;/div&gt;" style="rounded=0;whiteSpace=wrap;html=1;labelBackgroundColor=#FFFFFF;" vertex="1" parent="1">
          <mxGeometry x="210" y="115" width="350" height="75" as="geometry" />
        </mxCell>
        <mxCell id="TJ5iT2tm_MIIDxVGzSix-17" value="&lt;div style=&quot;color: rgb(212 , 212 , 212) ; font-family: &amp;#34;menlo&amp;#34; , &amp;#34;monaco&amp;#34; , &amp;#34;courier new&amp;#34; , monospace ; line-height: 18px&quot;&gt;&lt;b style=&quot;font-family: &amp;#34;helvetica&amp;#34; ; color: rgb(0 , 0 , 0)&quot;&gt;&lt;u&gt;&lt;font color=&quot;#006633&quot;&gt;Rule 4&lt;/font&gt;&lt;/u&gt;&lt;/b&gt;&lt;span style=&quot;background-color: rgb(255 , 255 , 255)&quot;&gt;&lt;span style=&quot;color: rgb(86 , 156 , 214)&quot;&gt;&lt;br&gt;&lt;/span&gt;&lt;/span&gt;&lt;/div&gt;&lt;div style=&quot;font-family: &amp;#34;menlo&amp;#34; , &amp;#34;monaco&amp;#34; , &amp;#34;courier new&amp;#34; , monospace ; line-height: 18px&quot;&gt;&lt;span style=&quot;background-color: rgb(255 , 255 , 255)&quot;&gt;&lt;span style=&quot;color: rgb(86 , 156 , 214)&quot;&gt;selection&lt;/span&gt;&lt;font color=&quot;#d4d4d4&quot;&gt;(&lt;/font&gt;&lt;span style=&quot;color: rgb(156 , 220 , 254)&quot;&gt;X&lt;/span&gt;&lt;font color=&quot;#d4d4d4&quot;&gt;,&lt;/font&gt;&lt;span style=&quot;color: rgb(156 , 220 , 254)&quot;&gt;Y&lt;/span&gt;&lt;font color=&quot;#d4d4d4&quot;&gt;)&lt;/font&gt;&lt;span style=&quot;color: rgb(86 , 156 , 214)&quot;&gt;:-&lt;/span&gt;&lt;font color=&quot;#d4d4d4&quot;&gt;&amp;nbsp;&lt;/font&gt;&lt;span style=&quot;color: rgb(86 , 156 , 214)&quot;&gt;selection&lt;/span&gt;&lt;font color=&quot;#d4d4d4&quot;&gt;(&lt;/font&gt;&lt;font color=&quot;#9cdcfe&quot;&gt;&lt;span&gt;X&lt;/span&gt;&lt;/font&gt;&lt;font color=&quot;#d4d4d4&quot;&gt;,&lt;/font&gt;&lt;span style=&quot;color: rgb(156 , 220 , 254)&quot;&gt;Z&lt;/span&gt;&lt;font color=&quot;#d4d4d4&quot;&gt;),&lt;/font&gt;&lt;span style=&quot;color: rgb(156 , 220 , 254)&quot;&gt;Y&lt;/span&gt;&lt;font color=&quot;#d4d4d4&quot;&gt;!=&lt;/font&gt;&lt;span style=&quot;color: rgb(156 , 220 , 254)&quot;&gt;Z&lt;/span&gt;&lt;font color=&quot;#d4d4d4&quot;&gt;.&lt;/font&gt;&lt;/span&gt;&lt;/div&gt;" style="rounded=0;whiteSpace=wrap;html=1;labelBackgroundColor=#FFFFFF;fontColor=#999999;" vertex="1" parent="1">
          <mxGeometry x="-95" y="130" width="280" height="60" as="geometry" />
        </mxCell>
        <mxCell id="TJ5iT2tm_MIIDxVGzSix-19" value="&lt;span style=&quot;background-color: rgb(255 , 255 , 255)&quot;&gt;&lt;b&gt;&lt;u&gt;&lt;font color=&quot;#006633&quot;&gt;Knowledge base&lt;/font&gt;&lt;/u&gt;&lt;/b&gt;&lt;br&gt;&lt;/span&gt;&lt;div style=&quot;text-align: left ; color: rgb(212 , 212 , 212) ; font-family: &amp;#34;menlo&amp;#34; , &amp;#34;monaco&amp;#34; , &amp;#34;courier new&amp;#34; , monospace ; line-height: 18px&quot;&gt;&lt;span style=&quot;background-color: rgb(255 , 255 , 255)&quot;&gt;&lt;span style=&quot;color: rgb(86 , 156 , 214)&quot;&gt;rewards&lt;/span&gt;(&lt;span style=&quot;color: rgb(86 , 156 , 214)&quot;&gt;points&lt;/span&gt;).&lt;/span&gt;&lt;/div&gt;&lt;div style=&quot;text-align: left ; color: rgb(212 , 212 , 212) ; font-family: &amp;#34;menlo&amp;#34; , &amp;#34;monaco&amp;#34; , &amp;#34;courier new&amp;#34; , monospace ; line-height: 18px&quot;&gt;&lt;span style=&quot;background-color: rgb(255 , 255 , 255) ; color: rgb(86 , 156 , 214)&quot;&gt;gameplay&lt;/span&gt;&lt;span style=&quot;background-color: rgb(255 , 255 , 255)&quot;&gt;(&lt;/span&gt;&lt;span style=&quot;color: rgb(86 , 156 , 214) ; font-family: &amp;#34;menlo&amp;#34; , &amp;#34;monaco&amp;#34; , &amp;#34;courier new&amp;#34; , monospace ; background-color: rgb(255 , 255 , 255)&quot;&gt;time_pressure&lt;/span&gt;&lt;span style=&quot;background-color: rgb(255 , 255 , 255)&quot;&gt;).&lt;/span&gt;&lt;/div&gt;&lt;div style=&quot;color: rgb(212 , 212 , 212) ; font-family: &amp;#34;menlo&amp;#34; , &amp;#34;monaco&amp;#34; , &amp;#34;courier new&amp;#34; , monospace ; line-height: 18px&quot;&gt;&lt;div style=&quot;font-family: &amp;#34;menlo&amp;#34; , &amp;#34;monaco&amp;#34; , &amp;#34;courier new&amp;#34; , monospace ; line-height: 18px&quot;&gt;&lt;div style=&quot;text-align: left ; line-height: 18px&quot;&gt;&lt;span style=&quot;background-color: rgb(255 , 255 , 255)&quot;&gt;&lt;span style=&quot;color: rgb(86 , 156 , 214)&quot;&gt;gameplay&lt;/span&gt;(&lt;span style=&quot;color: rgb(86 , 156 , 214)&quot;&gt;repetition&lt;/span&gt;).&lt;/span&gt;&lt;/div&gt;&lt;div style=&quot;line-height: 18px&quot;&gt;&lt;div style=&quot;line-height: 18px&quot;&gt;&lt;div style=&quot;text-align: left&quot;&gt;&lt;span style=&quot;background-color: rgb(255 , 255 , 255) ; color: rgb(86 , 156 , 214)&quot;&gt;gameplay&lt;/span&gt;&lt;span style=&quot;background-color: rgb(255 , 255 , 255)&quot;&gt;(&lt;/span&gt;&lt;span style=&quot;background-color: rgb(255 , 255 , 255) ; color: rgb(86 , 156 , 214)&quot;&gt;capture_eliminate&lt;/span&gt;&lt;span style=&quot;background-color: rgb(255 , 255 , 255)&quot;&gt;).&lt;/span&gt;&lt;/div&gt;&lt;div style=&quot;text-align: left&quot;&gt;&lt;span style=&quot;background-color: rgb(255 , 255 , 255) ; color: rgb(86 , 156 , 214)&quot;&gt;feedback&lt;/span&gt;&lt;span style=&quot;background-color: rgb(255 , 255 , 255)&quot;&gt;(&lt;/span&gt;&lt;span style=&quot;background-color: rgb(255 , 255 , 255) ; color: rgb(86 , 156 , 214)&quot;&gt;hints&lt;/span&gt;&lt;span style=&quot;background-color: rgb(255 , 255 , 255)&quot;&gt;).&lt;/span&gt;&lt;span style=&quot;background-color: rgb(255 , 255 , 255)&quot;&gt;&lt;br&gt;&lt;/span&gt;&lt;/div&gt;&lt;/div&gt;&lt;/div&gt;&lt;/div&gt;&lt;/div&gt;" style="rounded=0;whiteSpace=wrap;html=1;" vertex="1" parent="1">
          <mxGeometry x="120" y="670" width="210" height="105" as="geometry" />
        </mxCell>
        <mxCell id="TJ5iT2tm_MIIDxVGzSix-20" value="&lt;span style=&quot;background-color: rgb(255 , 255 , 255)&quot;&gt;&lt;b&gt;&lt;u&gt;&lt;font color=&quot;#006633&quot;&gt;Knowledge base&lt;/font&gt;&lt;/u&gt;&lt;/b&gt;&lt;br&gt;&lt;/span&gt;&lt;div style=&quot;text-align: left ; color: rgb(212 , 212 , 212) ; font-family: &amp;#34;menlo&amp;#34; , &amp;#34;monaco&amp;#34; , &amp;#34;courier new&amp;#34; , monospace ; line-height: 18px&quot;&gt;&lt;span style=&quot;background-color: rgb(255 , 255 , 255)&quot;&gt;&lt;span style=&quot;color: rgb(86 , 156 , 214)&quot;&gt;environment&lt;/span&gt;(&lt;span style=&quot;color: rgb(86 , 156 , 214)&quot;&gt;realism&lt;/span&gt;).&lt;/span&gt;&lt;/div&gt;&lt;div style=&quot;text-align: left ; color: rgb(212 , 212 , 212) ; font-family: &amp;#34;menlo&amp;#34; , &amp;#34;monaco&amp;#34; , &amp;#34;courier new&amp;#34; , monospace ; line-height: 18px&quot;&gt;&lt;span style=&quot;background-color: rgb(255 , 255 , 255)&quot;&gt;&lt;span style=&quot;color: rgb(86 , 156 , 214)&quot;&gt;feedback&lt;/span&gt;(&lt;span style=&quot;color: rgb(86 , 156 , 214) ; font-family: &amp;#34;menlo&amp;#34; , &amp;#34;monaco&amp;#34; , &amp;#34;courier new&amp;#34; , monospace&quot;&gt;time_pressure&lt;/span&gt;).&lt;/span&gt;&lt;/div&gt;&lt;div style=&quot;color: rgb(212 , 212 , 212) ; font-family: &amp;#34;menlo&amp;#34; , &amp;#34;monaco&amp;#34; , &amp;#34;courier new&amp;#34; , monospace ; line-height: 18px&quot;&gt;&lt;div style=&quot;font-family: &amp;#34;menlo&amp;#34; , &amp;#34;monaco&amp;#34; , &amp;#34;courier new&amp;#34; , monospace ; line-height: 18px&quot;&gt;&lt;div&gt;&lt;div style=&quot;text-align: left ; font-family: &amp;#34;menlo&amp;#34; , &amp;#34;monaco&amp;#34; , &amp;#34;courier new&amp;#34; , monospace ; line-height: 18px&quot;&gt;&lt;span style=&quot;background-color: rgb(255 , 255 , 255)&quot;&gt;&lt;span style=&quot;color: rgb(86 , 156 , 214)&quot;&gt;theory&lt;/span&gt;(&lt;span style=&quot;color: rgb(86 , 156 , 214)&quot;&gt;case_based&lt;/span&gt;).&lt;/span&gt;&lt;/div&gt;&lt;/div&gt;&lt;div&gt;&lt;div style=&quot;text-align: left ; line-height: 18px&quot;&gt;&lt;span style=&quot;background-color: rgb(255 , 255 , 255)&quot;&gt;&lt;span style=&quot;color: rgb(86 , 156 , 214)&quot;&gt;game_genre&lt;/span&gt;(&lt;span style=&quot;color: rgb(86 , 156 , 214)&quot;&gt;puzzle&lt;/span&gt;).&lt;/span&gt;&lt;/div&gt;&lt;/div&gt;&lt;/div&gt;&lt;/div&gt;" style="rounded=0;whiteSpace=wrap;html=1;" vertex="1" parent="1">
          <mxGeometry x="350" y="670" width="200" height="105" as="geometry" />
        </mxCell>
        <mxCell id="TJ5iT2tm_MIIDxVGzSix-21" value="&lt;span style=&quot;background-color: rgb(255 , 255 , 255)&quot;&gt;&lt;b&gt;&lt;u&gt;&lt;font color=&quot;#006633&quot;&gt;Knowledge base&lt;/font&gt;&lt;/u&gt;&lt;/b&gt;&lt;br&gt;&lt;/span&gt;&lt;div style=&quot;text-align: left ; color: rgb(212 , 212 , 212) ; font-family: &amp;#34;menlo&amp;#34; , &amp;#34;monaco&amp;#34; , &amp;#34;courier new&amp;#34; , monospace ; line-height: 18px&quot;&gt;&lt;div style=&quot;font-family: &amp;#34;menlo&amp;#34; , &amp;#34;monaco&amp;#34; , &amp;#34;courier new&amp;#34; , monospace ; line-height: 18px&quot;&gt;&lt;span style=&quot;background-color: rgb(255 , 255 , 255)&quot;&gt;&lt;span style=&quot;color: rgb(86 , 156 , 214)&quot;&gt;associated&lt;/span&gt;(&lt;span style=&quot;color: rgb(86 , 156 , 214)&quot;&gt;evaluating&lt;/span&gt;,&lt;span style=&quot;color: rgb(86 , 156 , 214)&quot;&gt;leaderboard&lt;/span&gt;).&lt;/span&gt;&lt;/div&gt;&lt;div style=&quot;font-family: &amp;#34;menlo&amp;#34; , &amp;#34;monaco&amp;#34; , &amp;#34;courier new&amp;#34; , monospace ; line-height: 18px&quot;&gt;&lt;div style=&quot;font-family: &amp;#34;menlo&amp;#34; , &amp;#34;monaco&amp;#34; , &amp;#34;courier new&amp;#34; , monospace ; line-height: 18px&quot;&gt;&lt;span style=&quot;background-color: rgb(255 , 255 , 255)&quot;&gt;&lt;span style=&quot;color: rgb(86 , 156 , 214)&quot;&gt;motivated&lt;/span&gt;(&lt;span style=&quot;color: rgb(86 , 156 , 214)&quot;&gt;young&lt;/span&gt;,&lt;span style=&quot;color: rgb(86 , 156 , 214)&quot;&gt;feedback&lt;/span&gt;).&lt;/span&gt;&lt;/div&gt;&lt;div style=&quot;font-family: &amp;#34;menlo&amp;#34; , &amp;#34;monaco&amp;#34; , &amp;#34;courier new&amp;#34; , monospace ; line-height: 18px&quot;&gt;&lt;div style=&quot;line-height: 18px&quot;&gt;&lt;span style=&quot;background-color: rgb(255 , 255 , 255)&quot;&gt;&lt;span style=&quot;color: rgb(86 , 156 , 214)&quot;&gt;associated&lt;/span&gt;(&lt;span style=&quot;color: rgb(86 , 156 , 214)&quot;&gt;performance&lt;/span&gt;,&lt;span style=&quot;color: rgb(86 , 156 , 214)&quot;&gt;time_pressure&lt;/span&gt;).&lt;/span&gt;&lt;/div&gt;&lt;div style=&quot;line-height: 18px&quot;&gt;&lt;div style=&quot;line-height: 18px&quot;&gt;&lt;span style=&quot;background-color: rgb(255 , 255 , 255)&quot;&gt;&lt;span style=&quot;color: rgb(86 , 156 , 214)&quot;&gt;associated&lt;/span&gt;(&lt;span style=&quot;color: rgb(86 , 156 , 214)&quot;&gt;explicit_knowledge&lt;/span&gt;,&lt;span style=&quot;color: rgb(86 , 156 , 214)&quot;&gt;cutscenes&lt;/span&gt;).&lt;/span&gt;&lt;/div&gt;&lt;/div&gt;&lt;/div&gt;&lt;/div&gt;&lt;/div&gt;" style="rounded=0;whiteSpace=wrap;html=1;" vertex="1" parent="1">
          <mxGeometry x="210" y="552.5" width="300" height="105" as="geometry" />
        </mxCell>
        <mxCell id="TJ5iT2tm_MIIDxVGzSix-24" value="" style="endArrow=classic;html=1;rounded=1;fontColor=#569CD6;exitX=0.475;exitY=0.002;exitDx=0;exitDy=0;exitPerimeter=0;" edge="1" parent="1" source="TJ5iT2tm_MIIDxVGzSix-22" target="TJ5iT2tm_MIIDxVGzSix-23">
          <mxGeometry width="50" height="50" relative="1" as="geometry">
            <mxPoint x="250" y="490" as="sourcePoint" />
            <mxPoint x="300" y="440" as="targetPoint" />
          </mxGeometry>
        </mxCell>
        <mxCell id="TJ5iT2tm_MIIDxVGzSix-25" value="&lt;b&gt;&lt;u&gt;&lt;font style=&quot;font-size: 24px&quot;&gt;GROUNDING&lt;/font&gt;&lt;/u&gt;&lt;/b&gt;" style="text;html=1;strokeColor=none;fillColor=none;align=center;verticalAlign=middle;whiteSpace=wrap;rounded=0;labelBackgroundColor=#FFFFFF;fontColor=#569CD6;" vertex="1" parent="1">
          <mxGeometry x="195" y="380" width="105" height="30" as="geometry" />
        </mxCell>
        <mxCell id="TJ5iT2tm_MIIDxVGzSix-26" value="&lt;b&gt;&lt;u&gt;&lt;font style=&quot;font-size: 24px&quot;&gt;SOLVING&lt;/font&gt;&lt;/u&gt;&lt;/b&gt;" style="text;html=1;strokeColor=none;fillColor=none;align=center;verticalAlign=middle;whiteSpace=wrap;rounded=0;labelBackgroundColor=#FFFFFF;fontColor=#569CD6;" vertex="1" parent="1">
          <mxGeometry x="164" y="70" width="110" height="30" as="geometry" />
        </mxCell>
      </root>
    </mxGraphModel>
  </diagram>
</mxfile>
